<svg id="visual" viewBox="0 0 900 600" width="900" height="600" xmlns="http://www.w3.org/2000/svg" xmlns:xlink="http://www.w3.org/1999/xlink" version="1.1"><rect width="900" height="600" fill="#182443"></rect><g><g transform="translate(28 287)"><path d="M0 -103.3L89.5 -51.7L89.5 51.7L0 103.3L-89.5 51.7L-89.5 -51.7Z" fill="none" stroke="#46acc3" stroke-width="4"></path></g><g transform="translate(867 207)"><path d="M0 -94L81.4 -47L81.4 47L0 94L-81.4 47L-81.4 -47Z" fill="none" stroke="#46acc3" stroke-width="4"></path></g><g transform="translate(287 266)"><path d="M0 -59L51.1 -29.5L51.1 29.5L0 59L-51.1 29.5L-51.1 -29.5Z" fill="none" stroke="#46acc3" stroke-width="4"></path></g><g transform="translate(612 212)"><path d="M0 -77L66.7 -38.5L66.7 38.5L0 77L-66.7 38.5L-66.7 -38.5Z" stroke="#46acc3" fill="none" stroke-width="4"></path></g><g transform="translate(788 454)"><path d="M0 -74L64.1 -37L64.1 37L0 74L-64.1 37L-64.1 -37Z" stroke="#46acc3" fill="none" stroke-width="4"></path></g><g transform="translate(5 59)"><path d="M0 -70L60.6 -35L60.6 35L0 70L-60.6 35L-60.6 -35Z" stroke="#46acc3" fill="none" stroke-width="4"></path></g><g transform="translate(154 473)"><path d="M0 -100L86.6 -50L86.6 50L0 100L-86.6 50L-86.6 -50Z" stroke="#46acc3" fill="none" stroke-width="4"></path></g><g transform="translate(730 17)"><path d="M0 -55L47.6 -27.5L47.6 27.5L0 55L-47.6 27.5L-47.6 -27.5Z" stroke="#46acc3" fill="none" stroke-width="4"></path></g><g transform="translate(529 529)"><path d="M0 -34L29.4 -17L29.4 17L0 34L-29.4 17L-29.4 -17Z" stroke="#46acc3" fill="none" stroke-width="4"></path></g><g transform="translate(375 46)"><path d="M0 -101L87.5 -50.5L87.5 50.5L0 101L-87.5 50.5L-87.5 -50.5Z" stroke="#46acc3" fill="none" stroke-width="4"></path></g><g transform="translate(329 591)"><path d="M0 -13L11.3 -6.5L11.3 6.5L0 13L-11.3 6.5L-11.3 -6.5Z" stroke="#46acc3" fill="none" stroke-width="4"></path></g></g></svg>