<svg id="visual" viewBox="0 0 900 600" width="900" height="600" xmlns="http://www.w3.org/2000/svg" xmlns:xlink="http://www.w3.org/1999/xlink" version="1.1"><path d="M0 61L100 67L200 67L300 109L400 103L500 97L600 97L700 97L800 103L900 79L900 0L800 0L700 0L600 0L500 0L400 0L300 0L200 0L100 0L0 0Z" fill="#182443"></path><path d="M0 283L100 211L200 235L300 253L400 283L500 265L600 223L700 259L800 217L900 211L900 77L800 101L700 95L600 95L500 95L400 101L300 107L200 65L100 65L0 59Z" fill="#182f51"></path><path d="M0 385L100 295L200 355L300 379L400 397L500 391L600 301L700 397L800 331L900 337L900 209L800 215L700 257L600 221L500 263L400 281L300 251L200 233L100 209L0 281Z" fill="#153b5f"></path><path d="M0 547L100 517L200 553L300 547L400 541L500 523L600 535L700 553L800 547L900 547L900 335L800 329L700 395L600 299L500 389L400 395L300 377L200 353L100 293L0 383Z" fill="#0e476d"></path><path d="M0 601L100 601L200 601L300 601L400 601L500 601L600 601L700 601L800 601L900 601L900 545L800 545L700 551L600 533L500 521L400 539L300 545L200 551L100 515L0 545Z" fill="#00547a"></path></svg>